<mxfile host="app.diagrams.net" modified="2022-09-08T18:59:11.213Z" agent="5.0 (Windows NT 10.0; Win64; x64) AppleWebKit/537.36 (KHTML, like Gecko) Chrome/105.0.0.0 Safari/537.36" etag="p_meQ8D3XVIV9TeaGuP1" version="20.3.0" type="github">
  <diagram id="prtHgNgQTEPvFCAcTncT" name="Page-1">
    <mxGraphModel dx="595" dy="1931" grid="1" gridSize="10" guides="1" tooltips="1" connect="1" arrows="1" fold="1" page="1" pageScale="1" pageWidth="827" pageHeight="1169" math="0" shadow="0">
      <root>
        <mxCell id="0" />
        <mxCell id="1" parent="0" />
        <mxCell id="3OsJ5SbNVrnw2GL74n1E-52" value="Getting Student Information" style="swimlane;" vertex="1" parent="1">
          <mxGeometry x="880" y="-190" width="670" height="840" as="geometry" />
        </mxCell>
        <mxCell id="3OsJ5SbNVrnw2GL74n1E-51" value="Company  " style="swimlane;" vertex="1" parent="3OsJ5SbNVrnw2GL74n1E-52">
          <mxGeometry y="20" width="220" height="820" as="geometry" />
        </mxCell>
        <mxCell id="3OsJ5SbNVrnw2GL74n1E-84" value="[" style="ellipse;whiteSpace=wrap;html=1;fillColor=#050505;" vertex="1" parent="3OsJ5SbNVrnw2GL74n1E-51">
          <mxGeometry x="95" y="730" width="30" height="30" as="geometry" />
        </mxCell>
        <mxCell id="3OsJ5SbNVrnw2GL74n1E-71" value="Fetch Resume" style="rounded=1;whiteSpace=wrap;html=1;fillColor=#FFFFFF;" vertex="1" parent="3OsJ5SbNVrnw2GL74n1E-51">
          <mxGeometry x="50" y="640" width="120" height="40" as="geometry" />
        </mxCell>
        <mxCell id="3OsJ5SbNVrnw2GL74n1E-82" value="" style="ellipse;whiteSpace=wrap;html=1;fillColor=#050505;" vertex="1" parent="3OsJ5SbNVrnw2GL74n1E-51">
          <mxGeometry x="100" y="735" width="20" height="20" as="geometry" />
        </mxCell>
        <mxCell id="3OsJ5SbNVrnw2GL74n1E-50" value="PAT Employee" style="swimlane;" vertex="1" parent="3OsJ5SbNVrnw2GL74n1E-52">
          <mxGeometry x="220" y="20" width="210" height="820" as="geometry" />
        </mxCell>
        <mxCell id="3OsJ5SbNVrnw2GL74n1E-65" style="edgeStyle=orthogonalEdgeStyle;rounded=0;orthogonalLoop=1;jettySize=auto;html=1;" edge="1" parent="3OsJ5SbNVrnw2GL74n1E-50" source="3OsJ5SbNVrnw2GL74n1E-58" target="3OsJ5SbNVrnw2GL74n1E-60">
          <mxGeometry relative="1" as="geometry" />
        </mxCell>
        <mxCell id="3OsJ5SbNVrnw2GL74n1E-58" value="Verify Information" style="rounded=1;whiteSpace=wrap;html=1;fillColor=#FFFFFF;" vertex="1" parent="3OsJ5SbNVrnw2GL74n1E-50">
          <mxGeometry x="35" y="210" width="130" height="40" as="geometry" />
        </mxCell>
        <mxCell id="3OsJ5SbNVrnw2GL74n1E-59" value="Prompt for Resume" style="rounded=1;whiteSpace=wrap;html=1;fillColor=#FFFFFF;" vertex="1" parent="3OsJ5SbNVrnw2GL74n1E-50">
          <mxGeometry x="35" y="390" width="130" height="40" as="geometry" />
        </mxCell>
        <mxCell id="3OsJ5SbNVrnw2GL74n1E-66" value="Yes" style="edgeStyle=orthogonalEdgeStyle;rounded=0;orthogonalLoop=1;jettySize=auto;html=1;" edge="1" parent="3OsJ5SbNVrnw2GL74n1E-50" source="3OsJ5SbNVrnw2GL74n1E-60" target="3OsJ5SbNVrnw2GL74n1E-59">
          <mxGeometry relative="1" as="geometry" />
        </mxCell>
        <mxCell id="3OsJ5SbNVrnw2GL74n1E-60" value="correct" style="rhombus;whiteSpace=wrap;html=1;fillColor=#FFFFFF;" vertex="1" parent="3OsJ5SbNVrnw2GL74n1E-50">
          <mxGeometry x="70" y="290" width="60" height="50" as="geometry" />
        </mxCell>
        <mxCell id="3OsJ5SbNVrnw2GL74n1E-76" style="edgeStyle=orthogonalEdgeStyle;rounded=0;orthogonalLoop=1;jettySize=auto;html=1;exitX=0.5;exitY=1;exitDx=0;exitDy=0;entryX=0.5;entryY=0;entryDx=0;entryDy=0;" edge="1" parent="3OsJ5SbNVrnw2GL74n1E-50" source="3OsJ5SbNVrnw2GL74n1E-72" target="3OsJ5SbNVrnw2GL74n1E-74">
          <mxGeometry relative="1" as="geometry" />
        </mxCell>
        <mxCell id="3OsJ5SbNVrnw2GL74n1E-72" value="Verify Format" style="rounded=1;whiteSpace=wrap;html=1;fillColor=#FFFFFF;" vertex="1" parent="3OsJ5SbNVrnw2GL74n1E-50">
          <mxGeometry x="50" y="490" width="120" height="40" as="geometry" />
        </mxCell>
        <mxCell id="3OsJ5SbNVrnw2GL74n1E-74" value="correct" style="rhombus;whiteSpace=wrap;html=1;fillColor=#FFFFFF;" vertex="1" parent="3OsJ5SbNVrnw2GL74n1E-50">
          <mxGeometry x="75" y="550" width="60" height="50" as="geometry" />
        </mxCell>
        <mxCell id="3OsJ5SbNVrnw2GL74n1E-49" value="Student" style="swimlane;" vertex="1" parent="3OsJ5SbNVrnw2GL74n1E-52">
          <mxGeometry x="430" y="20" width="240" height="820" as="geometry" />
        </mxCell>
        <mxCell id="3OsJ5SbNVrnw2GL74n1E-62" style="edgeStyle=orthogonalEdgeStyle;rounded=0;orthogonalLoop=1;jettySize=auto;html=1;entryX=0.462;entryY=0.25;entryDx=0;entryDy=0;entryPerimeter=0;" edge="1" parent="3OsJ5SbNVrnw2GL74n1E-49" source="3OsJ5SbNVrnw2GL74n1E-55" target="3OsJ5SbNVrnw2GL74n1E-56">
          <mxGeometry relative="1" as="geometry" />
        </mxCell>
        <mxCell id="3OsJ5SbNVrnw2GL74n1E-55" value="" style="ellipse;whiteSpace=wrap;html=1;fillColor=#050505;" vertex="1" parent="3OsJ5SbNVrnw2GL74n1E-49">
          <mxGeometry x="110" y="50" width="20" height="20" as="geometry" />
        </mxCell>
        <mxCell id="3OsJ5SbNVrnw2GL74n1E-63" style="edgeStyle=orthogonalEdgeStyle;rounded=0;orthogonalLoop=1;jettySize=auto;html=1;" edge="1" parent="3OsJ5SbNVrnw2GL74n1E-49" source="3OsJ5SbNVrnw2GL74n1E-56" target="3OsJ5SbNVrnw2GL74n1E-57">
          <mxGeometry relative="1" as="geometry" />
        </mxCell>
        <mxCell id="3OsJ5SbNVrnw2GL74n1E-56" value="Login into PAT Portal" style="rounded=1;whiteSpace=wrap;html=1;fillColor=#FFFFFF;" vertex="1" parent="3OsJ5SbNVrnw2GL74n1E-49">
          <mxGeometry x="55" y="90" width="130" height="40" as="geometry" />
        </mxCell>
        <mxCell id="3OsJ5SbNVrnw2GL74n1E-57" value="Enter information" style="rounded=1;whiteSpace=wrap;html=1;fillColor=#FFFFFF;" vertex="1" parent="3OsJ5SbNVrnw2GL74n1E-49">
          <mxGeometry x="55" y="160" width="130" height="40" as="geometry" />
        </mxCell>
        <mxCell id="3OsJ5SbNVrnw2GL74n1E-67" value="Upload Resume" style="rounded=1;whiteSpace=wrap;html=1;fillColor=#FFFFFF;" vertex="1" parent="3OsJ5SbNVrnw2GL74n1E-49">
          <mxGeometry x="50" y="450" width="120" height="40" as="geometry" />
        </mxCell>
        <mxCell id="3OsJ5SbNVrnw2GL74n1E-64" style="edgeStyle=orthogonalEdgeStyle;rounded=0;orthogonalLoop=1;jettySize=auto;html=1;entryX=0.5;entryY=0;entryDx=0;entryDy=0;" edge="1" parent="3OsJ5SbNVrnw2GL74n1E-52" source="3OsJ5SbNVrnw2GL74n1E-57" target="3OsJ5SbNVrnw2GL74n1E-58">
          <mxGeometry relative="1" as="geometry">
            <mxPoint x="320" y="230" as="targetPoint" />
            <Array as="points">
              <mxPoint x="320" y="230" />
              <mxPoint x="320" y="270" />
            </Array>
          </mxGeometry>
        </mxCell>
        <mxCell id="3OsJ5SbNVrnw2GL74n1E-68" style="edgeStyle=orthogonalEdgeStyle;rounded=0;orthogonalLoop=1;jettySize=auto;html=1;" edge="1" parent="3OsJ5SbNVrnw2GL74n1E-52" source="3OsJ5SbNVrnw2GL74n1E-59" target="3OsJ5SbNVrnw2GL74n1E-67">
          <mxGeometry relative="1" as="geometry" />
        </mxCell>
        <mxCell id="3OsJ5SbNVrnw2GL74n1E-69" style="edgeStyle=orthogonalEdgeStyle;rounded=0;orthogonalLoop=1;jettySize=auto;html=1;exitX=1;exitY=0.5;exitDx=0;exitDy=0;entryX=0.5;entryY=1;entryDx=0;entryDy=0;" edge="1" parent="3OsJ5SbNVrnw2GL74n1E-52" source="3OsJ5SbNVrnw2GL74n1E-60" target="3OsJ5SbNVrnw2GL74n1E-57">
          <mxGeometry relative="1" as="geometry" />
        </mxCell>
        <mxCell id="3OsJ5SbNVrnw2GL74n1E-70" value="No" style="edgeLabel;html=1;align=center;verticalAlign=middle;resizable=0;points=[];" vertex="1" connectable="0" parent="3OsJ5SbNVrnw2GL74n1E-69">
          <mxGeometry x="-0.6909" y="-4" relative="1" as="geometry">
            <mxPoint as="offset" />
          </mxGeometry>
        </mxCell>
        <mxCell id="3OsJ5SbNVrnw2GL74n1E-75" style="edgeStyle=orthogonalEdgeStyle;rounded=0;orthogonalLoop=1;jettySize=auto;html=1;exitX=0.5;exitY=1;exitDx=0;exitDy=0;" edge="1" parent="3OsJ5SbNVrnw2GL74n1E-52" source="3OsJ5SbNVrnw2GL74n1E-74" target="3OsJ5SbNVrnw2GL74n1E-71">
          <mxGeometry relative="1" as="geometry" />
        </mxCell>
        <mxCell id="3OsJ5SbNVrnw2GL74n1E-80" value="Yes" style="edgeLabel;html=1;align=center;verticalAlign=middle;resizable=0;points=[];" vertex="1" connectable="0" parent="3OsJ5SbNVrnw2GL74n1E-75">
          <mxGeometry x="-0.5529" y="1" relative="1" as="geometry">
            <mxPoint as="offset" />
          </mxGeometry>
        </mxCell>
        <mxCell id="3OsJ5SbNVrnw2GL74n1E-78" style="edgeStyle=orthogonalEdgeStyle;rounded=0;orthogonalLoop=1;jettySize=auto;html=1;entryX=0.5;entryY=0;entryDx=0;entryDy=0;" edge="1" parent="3OsJ5SbNVrnw2GL74n1E-52" source="3OsJ5SbNVrnw2GL74n1E-67" target="3OsJ5SbNVrnw2GL74n1E-72">
          <mxGeometry relative="1" as="geometry" />
        </mxCell>
        <mxCell id="3OsJ5SbNVrnw2GL74n1E-79" style="edgeStyle=orthogonalEdgeStyle;rounded=0;orthogonalLoop=1;jettySize=auto;html=1;exitX=1;exitY=0.5;exitDx=0;exitDy=0;entryX=0.5;entryY=1;entryDx=0;entryDy=0;" edge="1" parent="3OsJ5SbNVrnw2GL74n1E-52" source="3OsJ5SbNVrnw2GL74n1E-74" target="3OsJ5SbNVrnw2GL74n1E-67">
          <mxGeometry relative="1" as="geometry" />
        </mxCell>
        <mxCell id="3OsJ5SbNVrnw2GL74n1E-81" value="No" style="edgeLabel;html=1;align=center;verticalAlign=middle;resizable=0;points=[];" vertex="1" connectable="0" parent="3OsJ5SbNVrnw2GL74n1E-79">
          <mxGeometry x="-0.6667" relative="1" as="geometry">
            <mxPoint as="offset" />
          </mxGeometry>
        </mxCell>
        <mxCell id="3OsJ5SbNVrnw2GL74n1E-83" style="edgeStyle=orthogonalEdgeStyle;rounded=0;orthogonalLoop=1;jettySize=auto;html=1;" edge="1" parent="1" source="3OsJ5SbNVrnw2GL74n1E-71">
          <mxGeometry relative="1" as="geometry">
            <mxPoint x="990" y="560" as="targetPoint" />
          </mxGeometry>
        </mxCell>
      </root>
    </mxGraphModel>
  </diagram>
</mxfile>
